<svg id="Logo" xmlns="http://www.w3.org/2000/svg" xmlns:xlink="http://www.w3.org/1999/xlink" width="150" height="150" viewBox="0 0 150 150">
  <defs>
    <linearGradient id="linear-gradient" x1="0.5" x2="0.5" y2="1" gradientUnits="objectBoundingBox">
      <stop offset="0" stop-color="#f59684"/>
      <stop offset="1" stop-color="#ffe8e3"/>
    </linearGradient>
    <linearGradient id="linear-gradient-2" x1="0.5" x2="0.5" y2="1" gradientUnits="objectBoundingBox">
      <stop offset="0" stop-color="#fab376"/>
      <stop offset="1" stop-color="#f8e1cc"/>
    </linearGradient>
    <linearGradient id="linear-gradient-3" x1="0.5" x2="0.5" y2="1" gradientUnits="objectBoundingBox">
      <stop offset="0" stop-color="#94d0b8"/>
      <stop offset="1" stop-color="#81e2bb"/>
    </linearGradient>
  </defs>
  <circle id="Ellipse_26" data-name="Ellipse 26" cx="75" cy="75" r="75" fill="#fff"/>
  <path id="Path_8" data-name="Path 8" d="M116.605,38.8l-5.982-4.285c.777-1.489,6.031-4.992,7.519-5.262,8.4,1.457-4.569,7.259-1.537,9.546" transform="translate(-28.065 -14.416)" fill="#fab376"/>
  <path id="Path_9" data-name="Path 9" d="M112.722,103.439q.238-2.967.476-5.935-.237,2.967-.476,5.935" transform="translate(-28.246 -20.311)" fill="#6cb8bc"/>
  <path id="Path_10" data-name="Path 10" d="M127.86,134.3q-.392.611-.783,1.226Z" transform="translate(-29.486 -23.49)" fill="#6cb8bc"/>
  <path id="Path_11" data-name="Path 11" d="M127.278,54.092c-11.271-2.3-12.769-14.447-21.058-20.039-.617-3.277,2.93-4.986,2.675-8.1-6.371-4.843-22.7,18.388-28.277,22.479C66.959,62.123,54.042,76.706,48.37,95.546c3.191,10.188,10.384,16.689,19.781,21.446h0l4.267,1.77q1.129-5.672,2.259-11.347.6-1.009,1.2-2.017c.068.013.128.02.2.033C89.455,102.256,93.284,74.4,103.6,63.855c8.081-3.577,21.817,6.849,25.735-6.165.122-1.666-.154-3.363-2.062-3.6" transform="translate(-22.688 -14.072)" fill="url(#linear-gradient)"/>
  <path id="Path_12" data-name="Path 12" d="M84.288,83.637l-1.276,1.229q.637-.615,1.276-1.229" transform="translate(-25.68 -19.113)" fill="#2b353c"/>
  <path id="Path_13" data-name="Path 13" d="M139.191,132.743c-1.661-.582-3.249.683-4.563,1.613-2.982,2.761-6.046,5.433-8.961,8.266-1.054.691-2.1,1.394-3.157,2.089,1.943-.53,3.935-.9,5.84-1.556h0c2.945-.868,5.191-2.867,7.577-4.712,3.028-1.354,10.27-4.749,3.263-5.7" transform="translate(-29.092 -23.342)" fill="#94d0b8"/>
  <path id="Union_1" data-name="Union 1" d="M.371,10.864l.181.173L0,11.178C.124,11.074.248,10.969.371,10.864Zm0,0c.192-.208.383-.416.575-.625C1.358,9.653,3.987,5.278,4.7,3.817L4.677,3.79c1.471-2.76,5.144-4.965,8.439-3.1C9.725,3.338,1.353,10.291.552,11.038Z" transform="translate(92.915 108.248)" fill="#94d0b8" stroke="rgba(0,0,0,0)" stroke-miterlimit="10" stroke-width="1"/>
  <path id="Path_16" data-name="Path 16" d="M106.576,66.768c-17.71,3.078-50.943,46.224-41.775,50.218S78.984,128.479,80.411,127.5s18.424-40.1,20.305-40.918c-2.581-7.04,1.12-16.637,5.86-19.814" transform="translate(-23.964 -17.68)" fill="url(#linear-gradient-2)"/>
  <path id="Path_17" data-name="Path 17" d="M105.409,96.986c1.719,1.783-.624,3.259-1.55,4.9a.162.162,0,0,0-.17.21c-2.827,2.068-6.776-5.315,1.72-5.109" transform="translate(-27.17 -20.266)" fill="#61747f"/>
  <path id="Path_18" data-name="Path 18" d="M109.841,96.072c-1.509-5.611-2.014-7.452-3.607-8.137a17.79,17.79,0,0,0-.629-7.007l-3.431,6.384c-6.267.806-7.651,1.851-13.388-2.693.689,3.941,1.831,7.919,2.271,11.994q-.116.628-.231,1.256c-3.39,4.5-8.073,8.206-12.573,12.034-3.547,1.566-3.4,6.76-4.247,10.071-2.6,7.152,27.094,11.308,32.252,9.65.783-11.2,3.251-22.51,3.583-33.553" transform="translate(-24.889 -18.881)" fill="#fce29b"/>
  <path id="Path_21" data-name="Path 21" d="M106.67,98.231l-.467-.693.467.693" transform="translate(-27.684 -20.313)" fill="#f4f8fa"/>
  <path id="Path_22" data-name="Path 22" d="M125.522,140.553c5.39-2.5,11.5-11.715,16.768-6.616,3.69,3.685-4.8,6.85-6.977,10.858-24.216,14.481-48.788,17.222-72.435-.308-11.782-8.866-21.836-27.848-14.731-42.3C53.069,108.906,56,117.115,64.5,120.56a74.783,74.783,0,0,0,49.273,9.367c2.951-.352,4.751,2.155,3.779,5.151-3,6.816-12.079,6.623-18.4,6.871-.158.307,19.131.565,26.365-1.4" transform="translate(-22.465 -20.715)" fill="url(#linear-gradient-3)"/>
  <path id="Path_23" data-name="Path 23" d="M104.456,97.455c-.867-1.237-1.937-.312-2.915.005-2.218-.45-3.811-.445-2.613,2.138,1.08,4.239,7.24,1.032,5.528-2.143" transform="translate(-27.02 -20.252)" fill="#f9bbaf"/>
</svg>
