<svg id="build-24px" xmlns="http://www.w3.org/2000/svg" width="33.039" height="33.039" viewBox="0 0 33.039 33.039">
  <path id="Path_30" data-name="Path 30" d="M0,0H33.039V33.039H0Z" fill="none"/>
  <path id="Path_31" data-name="Path 31" d="M16.266,3.624A8.951,8.951,0,0,0,6.024,1.917l5,5a1.371,1.371,0,0,1,0,1.941L8.833,11.044a1.347,1.347,0,0,1-1.941,0l-5-5A8.939,8.939,0,0,0,13.1,18.313L24.058,29.271a3.611,3.611,0,1,0,5.107-5.107l-10.9-10.917a8.959,8.959,0,0,0-2-9.623Z" transform="translate(1.065 1.758)" fill="#6a6a6a"/>
</svg>
