<svg xmlns="http://www.w3.org/2000/svg" width="152.954" height="152.994" viewBox="0 0 152.954 152.994">
  <g id="high-five" transform="translate(-0.067)">
    <g id="Group_50" data-name="Group 50" transform="translate(121.49 147.018)">
      <g id="Group_49" data-name="Group 49">
        <path id="Path_146" data-name="Path 146" d="M411.515,492.876a2.987,2.987,0,1,0,.875,2.113A3.006,3.006,0,0,0,411.515,492.876Z" transform="translate(-406.414 -492)" fill="#fff"/>
      </g>
    </g>
    <g id="Group_52" data-name="Group 52" transform="translate(56.202)">
      <g id="Group_51" data-name="Group 51">
        <path id="Path_147" data-name="Path 147" d="M282.679,50.157a11.686,11.686,0,0,0-7.668-4.94A11.816,11.816,0,0,0,262.6,51.237V19.706a11.577,11.577,0,0,0-17.33-10.055,11.584,11.584,0,0,0-22.843,0,11.576,11.576,0,0,0-17.274,8.922,11.579,11.579,0,0,0-17.222,10.118,2.988,2.988,0,1,0,5.976,0,5.61,5.61,0,0,1,11.189-.581v7.966a2.988,2.988,0,0,0,5.976,0V19.707a5.61,5.61,0,0,1,11.189-.581V42.373c0,.137.03,1.13.03,1.13a2.988,2.988,0,1,0,5.976,0v-23.8c0-.267-.013-.532-.03-.8V11.586a5.61,5.61,0,0,1,11.219,0v7.325c-.018.263-.03.528-.03.8V61.73a2.988,2.988,0,1,0,5.976,0l.03-42.6a5.61,5.61,0,0,1,11.189.581v44.2a4.255,4.255,0,0,0,8.388,1.013l2.326-9.488a5.8,5.8,0,0,1,11.322,2.5l-4.5,22.83a39.009,39.009,0,0,1-10.764,20.144l-9.3,9.269a2.987,2.987,0,0,0-.878,2.116V138.95a2.988,2.988,0,0,0,5.976,0V113.536l8.417-8.393a44.966,44.966,0,0,0,12.408-23.22l4.5-22.83A11.688,11.688,0,0,0,282.679,50.157Z" transform="translate(-187.927)" fill="#fff"/>
      </g>
    </g>
    <g id="Group_54" data-name="Group 54" transform="translate(68.352 92.334)">
      <g id="Group_53" data-name="Group 53">
        <path id="Path_148" data-name="Path 148" d="M248.909,309a2.988,2.988,0,0,0-2.988,2.988v8.764a36.475,36.475,0,0,1-10.792,26l-5.662,5.646a2.987,2.987,0,0,0-.878,2.116v12.156a2.988,2.988,0,0,0,5.976,0V355.756l4.784-4.77A42.41,42.41,0,0,0,251.9,320.752v-8.764A2.989,2.989,0,0,0,248.909,309Z" transform="translate(-228.588 -309)" fill="#fff"/>
      </g>
    </g>
    <g id="Group_56" data-name="Group 56" transform="translate(85.685 81.726)">
      <g id="Group_55" data-name="Group 55">
        <path id="Path_149" data-name="Path 149" d="M291.694,274.376a2.987,2.987,0,1,0,.876,2.113A3.011,3.011,0,0,0,291.694,274.376Z" transform="translate(-286.593 -273.5)" fill="#fff"/>
      </g>
    </g>
    <g id="Group_58" data-name="Group 58" transform="translate(0.067 31.841)">
      <g id="Group_57" data-name="Group 57">
        <path id="Path_150" data-name="Path 150" d="M80.57,122.677A11.019,11.019,0,0,0,75.4,123.96a11.086,11.086,0,0,0-16.3-8.407,11.09,11.09,0,0,0-21.781,0A11.088,11.088,0,0,0,20.943,125.3v29.076a11.308,11.308,0,0,0-11.559-5.2,11.271,11.271,0,0,0-9.1,13.279l4.243,21.517a42.55,42.55,0,0,0,11.742,21.973l7.882,7.86v10.915a2.988,2.988,0,0,0,5.976,0V212.565a2.989,2.989,0,0,0-.878-2.116l-8.76-8.736a36.593,36.593,0,0,1-10.1-18.9L6.147,161.3a5.294,5.294,0,0,1,10.336-2.285l2.192,8.942a4.182,4.182,0,0,0,8.244-1V125.3a5.115,5.115,0,0,1,10.2-.536v21.9a2.988,2.988,0,0,0,2.988,2.988h.029a2.988,2.988,0,0,0,2.988-2.988V125.3c0-.254-.012-.505-.029-.755v-6.9a5.115,5.115,0,0,1,10.231,0v6.9c-.017.25-.029.5-.029.755v21.363a2.988,2.988,0,0,0,2.988,2.988h.029a2.988,2.988,0,0,0,2.988-2.988v-21.9a5.115,5.115,0,0,1,10.2.536l-.028,21.363a2.988,2.988,0,0,0,2.988,2.988h.029a2.988,2.988,0,0,0,2.988-2.988V133.232a5.115,5.115,0,0,1,10.2.536v13.958a2.988,2.988,0,0,0,5.976,0V133.768A11.1,11.1,0,0,0,80.57,122.677Z" transform="translate(-0.067 -106.556)" fill="#fff"/>
      </g>
    </g>
    <g id="Group_60" data-name="Group 60" transform="translate(23.676 0.008)">
      <g id="Group_59" data-name="Group 59">
        <path id="Path_151" data-name="Path 151" d="M99.934,16.657,84.178.9a2.988,2.988,0,0,0-4.226,4.226L95.708,20.883a2.988,2.988,0,1,0,4.226-4.226Z" transform="translate(-79.076 -0.026)" fill="#fff"/>
      </g>
    </g>
    <g id="Group_62" data-name="Group 62" transform="translate(23.683 24.647)">
      <g id="Group_61" data-name="Group 61">
        <path id="Path_152" data-name="Path 152" d="M89.381,82.481H82.089a2.988,2.988,0,0,0,0,5.976h7.292a2.988,2.988,0,0,0,0-5.976Z" transform="translate(-79.101 -82.481)" fill="#fff"/>
      </g>
    </g>
    <g id="Group_64" data-name="Group 64" transform="translate(48.178)">
      <g id="Group_63" data-name="Group 63">
        <path id="Path_153" data-name="Path 153" d="M164.062,0a2.988,2.988,0,0,0-2.988,2.988v7.536a2.988,2.988,0,0,0,5.976,0V2.988A2.988,2.988,0,0,0,164.062,0Z" transform="translate(-161.074)" fill="#fff"/>
      </g>
    </g>
  </g>
</svg>
