<svg xmlns="http://www.w3.org/2000/svg" width="33.606" height="36.236" viewBox="0 0 33.606 36.236">
  <path id="icons8-home" d="M34.48,37.156H26.829A2.125,2.125,0,0,1,24.7,35.031V27.379a1.7,1.7,0,0,0-1.7-1.7H19.6a1.7,1.7,0,0,0-1.7,1.7v7.651a2.125,2.125,0,0,1-2.125,2.125H8.125A2.125,2.125,0,0,1,6,35.031V18.8a6.378,6.378,0,0,1,2.431-5.01L20.513,4.273a1.278,1.278,0,0,1,1.579,0l12.084,9.521a6.375,6.375,0,0,1,2.43,5.008V35.031A2.125,2.125,0,0,1,34.48,37.156Z" transform="translate(-4.5 -2.42)" fill="rgba(255,255,255,0.15)" stroke="#fff" stroke-width="3"/>
</svg>
