<svg xmlns="http://www.w3.org/2000/svg" width="41.112" height="40.613" viewBox="0 0 41.112 40.613">
  <g id="Group_72" data-name="Group 72" transform="translate(-1805.5 20164.613)">
    <g id="Group_70" data-name="Group 70" transform="translate(1805.5 -20166.443)">
      <g id="Group_71" data-name="Group 71" transform="translate(0 3.443)">
        <path id="Path_171" data-name="Path 171" d="M41.1,42.443h0ZM4.592,18.259v.251q0,4.432,0,8.863,0,5.765,0,11.53a1.424,1.424,0,0,0,.047.434.774.774,0,0,0,.833.534H36.956a.407.407,0,0,0,.115,0,1.866,1.866,0,0,0,.443-.152.842.842,0,0,0,.336-.805q0-10.187,0-20.374v-.269c.072.05.109.074.144.1.329.254.647.521.987.759a.786.786,0,0,0,.937-1.263c-.6-.477-1.207-.945-1.811-1.417l-7.35-5.754L23.587,5.08q-.9-.7-1.8-1.405a.821.821,0,0,0-1.149.006c-.1.078-.2.159-.3.238l-8.212,6.425L4.249,16.51c-.584.457-1.171.909-1.747,1.376a.786.786,0,0,0,.937,1.26c.112-.072.215-.16.321-.242l.831-.645" transform="translate(-0.001 -3.443)" fill="rgba(255,255,255,0.15)"/>
        <path id="Path_172" data-name="Path 172" d="M31.193,42.1l-.832.645c-.106.082-.209.17-.321.242a.786.786,0,0,1-.937-1.26c.575-.467,1.163-.919,1.747-1.376l7.879-6.166,8.212-6.425c.1-.079.2-.159.3-.238a.821.821,0,0,1,1.149-.006q.9.7,1.8,1.405l7.168,5.613L64.7,40.29c.6.473,1.211.94,1.811,1.417a.786.786,0,0,1-.937,1.263c-.34-.238-.659-.505-.987-.759-.034-.027-.071-.05-.144-.1v.269q0,10.187,0,20.374a.842.842,0,0,1-.336.805,1.866,1.866,0,0,1-.443.152.407.407,0,0,1-.115,0H32.075a.774.774,0,0,1-.833-.534,1.424,1.424,0,0,1-.047-.434q0-5.765,0-11.53,0-4.432,0-8.863ZM62.864,62.126V45.463q0-2.216,0-4.432a.286.286,0,0,0-.111-.262q-7.4-5.785-14.79-11.579a.2.2,0,0,0-.292,0q-1.444,1.141-2.895,2.272-5.924,4.637-11.851,9.27a.356.356,0,0,0-.153.319q.005,10.427,0,20.854v.216Z" transform="translate(-26.602 -27.286)" fill="#fff"/>
        <path id="Path_174" data-name="Path 174" d="M130.773,186.628c-.161,0-.314,0-.466,0-.812-.01-1.628.029-2.434-.042a5.171,5.171,0,0,1-4.59-3.9,4.421,4.421,0,0,1,.434-3.206c.03-.055.057-.111.068-.134a11.01,11.01,0,0,1-1.1-.705,2.546,2.546,0,0,1-1.034-2.382,4.053,4.053,0,0,1,.5-1.4,7.755,7.755,0,0,1,2.263-2.761,2.241,2.241,0,0,1,2.289-.357,3.661,3.661,0,0,1,.661.412c.076.053.125.083.215.038a6.2,6.2,0,0,1,3.159-.6,5.985,5.985,0,0,1,2.278.6.173.173,0,0,0,.233-.021,2.184,2.184,0,0,1,2.64-.274,5.356,5.356,0,0,1,1.416,1.22,8.5,8.5,0,0,1,1.505,2.5,2.494,2.494,0,0,1-.623,2.811,3.478,3.478,0,0,1-1.235.821,1.029,1.029,0,0,0-.1.048c-.01.006-.017.019-.025.029a5.316,5.316,0,0,1,.646,2.476,9.173,9.173,0,0,1,1.136.009c.605.076,1.2.2,1.8.322a.3.3,0,0,0,.291-.057q.935-.78,1.88-1.547a.8.8,0,0,1,1.281.2,6,6,0,0,1,1.031,3.543,3.122,3.122,0,0,1-.313,1.254.216.216,0,0,0-.016.168,5.048,5.048,0,0,1,.59,1.867c.112.782.158,1.574.225,2.362a1.213,1.213,0,0,1-.372.854,7.62,7.62,0,0,1-3.815,2.5,11.576,11.576,0,0,1-4.375.433,9.593,9.593,0,0,1-3.857-1.082,6.733,6.733,0,0,1-2.441-2.109,1.042,1.042,0,0,1-.185-.63,12.473,12.473,0,0,1,.4-3.106c.012-.042.017-.086.029-.148m.329-1.587c.368,0,.717,0,1.067,0a3.717,3.717,0,0,0,2.713-1.1,3.185,3.185,0,0,0,.94-2.955,3.253,3.253,0,0,0-.91-1.714.839.839,0,0,1-.24-.872,3.441,3.441,0,0,0,.136-.732,4.019,4.019,0,0,0-1.558-3.5,4.769,4.769,0,0,0-5.552-.243,4.007,4.007,0,0,0-1.752,4.439.908.908,0,0,1-.272.953,3.255,3.255,0,0,0,.065,4.628,3.755,3.755,0,0,0,2.622,1.086c.382.01.764,0,1.139,0a.33.33,0,0,0,.018-.061c0-.863,0-1.726,0-2.589a.413.413,0,0,0-.091-.2c-.166-.248-.357-.482-.5-.743-.157-.288-.1-.4.2-.538a3.012,3.012,0,0,1,1.351-.2,2.426,2.426,0,0,1,1.11.246c.191.1.253.22.152.405-.157.289-.356.555-.529.836a.573.573,0,0,0-.1.269c-.009.665,0,1.33,0,1.995Zm11.838-2.752c-.065.05-.116.088-.165.128l-1.481,1.217a.808.808,0,0,1-.821.165c-.1-.035-.2-.085-.3-.118a7.723,7.723,0,0,0-2.934-.3c-.068,0-.155.1-.191.17a5.255,5.255,0,0,1-4.327,3.033.358.358,0,0,0-.365.294,10.607,10.607,0,0,0-.375,2.684.67.67,0,0,0,.123.382,3.023,3.023,0,0,0,.455.49,6.759,6.759,0,0,0,2.876,1.452,10.393,10.393,0,0,0,3.309.242,7.985,7.985,0,0,0,3.508-1.032,4.405,4.405,0,0,0,1.4-1.176.56.56,0,0,0,.106-.329c-.025-.484-.056-.969-.116-1.45a5.482,5.482,0,0,0-.684-2.211.779.779,0,0,1,.071-.9,1.406,1.406,0,0,0,.23-.476,3.745,3.745,0,0,0-.315-2.267m-6.551-4.492a6.723,6.723,0,0,0,.6-.418.949.949,0,0,0,.318-1.256,6.325,6.325,0,0,0-1.76-2.535,2.949,2.949,0,0,0-.672-.39.841.841,0,0,0-.3-.023,5.814,5.814,0,0,1,1.811,4.623m-10.278-4.628a1.43,1.43,0,0,0-.323.02,1.409,1.409,0,0,0-.4.182,5.931,5.931,0,0,0-2.123,2.99.709.709,0,0,0-.025.393,1.6,1.6,0,0,0,1,.992,5.63,5.63,0,0,1,1.872-4.578" transform="translate(-112.291 -160.488)" fill="#fff"/>
        <path id="Path_175" data-name="Path 175" d="M168.447,204.128v-.58c0-.665,0-1.33,0-1.995a.573.573,0,0,1,.1-.269c.173-.281.371-.547.529-.836.1-.185.039-.3-.152-.4a2.426,2.426,0,0,0-1.11-.246,3.013,3.013,0,0,0-1.351.2c-.3.133-.353.25-.2.538.142.261.334.494.5.743a.413.413,0,0,1,.091.2c.006.863,0,1.726,0,2.589a.33.33,0,0,1-.018.061c-.375,0-.757.008-1.139,0a3.755,3.755,0,0,1-2.622-1.086,3.255,3.255,0,0,1-.065-4.628.908.908,0,0,0,.272-.953,4.007,4.007,0,0,1,1.752-4.439,4.769,4.769,0,0,1,5.552.243,4.018,4.018,0,0,1,1.558,3.5,3.441,3.441,0,0,1-.136.732.839.839,0,0,0,.24.872,3.254,3.254,0,0,1,.91,1.714,3.185,3.185,0,0,1-.94,2.955,3.717,3.717,0,0,1-2.713,1.1c-.35,0-.7,0-1.067,0m-3.131-7.121a.778.778,0,0,0-.791.782.787.787,0,1,0,1.574.008.777.777,0,0,0-.783-.79m4.752,0a.771.771,0,0,0-.788.782.78.78,0,0,0,.781.793.8.8,0,0,0,.795-.785.788.788,0,0,0-.787-.79" transform="translate(-149.637 -179.575)" fill="#f9b275"/>
        <path id="Path_176" data-name="Path 176" d="M267.261,311.105a3.746,3.746,0,0,1,.315,2.267,1.413,1.413,0,0,1-.23.476.779.779,0,0,0-.071.9,5.48,5.48,0,0,1,.684,2.211c.06.481.09.966.116,1.45a.559.559,0,0,1-.106.329,4.4,4.4,0,0,1-1.4,1.176,7.986,7.986,0,0,1-3.508,1.032,10.4,10.4,0,0,1-3.309-.242,6.76,6.76,0,0,1-2.876-1.452,3.031,3.031,0,0,1-.455-.49.67.67,0,0,1-.123-.382,10.6,10.6,0,0,1,.375-2.684.358.358,0,0,1,.365-.293,5.255,5.255,0,0,0,4.327-3.033c.035-.073.122-.165.191-.17a7.724,7.724,0,0,1,2.934.3c.1.033.2.083.3.118a.808.808,0,0,0,.821-.165l1.481-1.217c.049-.04.1-.077.165-.128m-5.079,6.6c-.336.083-.678.149-1.007.257-.187.061-.209.18-.119.352a2.909,2.909,0,0,0,.839.957.442.442,0,0,0,.579,0,2.982,2.982,0,0,0,.816-.9c.126-.219.107-.338-.129-.42-.309-.107-.636-.16-.98-.242m-1.966-.684a.787.787,0,1,0-.8-.78.8.8,0,0,0,.8.78m3.96,0a.8.8,0,0,0,.785-.778.792.792,0,0,0-.8-.8.775.775,0,0,0-.778.793.783.783,0,0,0,.795.781" transform="translate(-236.613 -289.304)" fill="#f9b275"/>
        <path id="Path_177" data-name="Path 177" d="M291.936,197.051a5.813,5.813,0,0,0-1.811-4.623.84.84,0,0,1,.3.023,2.949,2.949,0,0,1,.672.39,6.325,6.325,0,0,1,1.76,2.535.949.949,0,0,1-.318,1.256,6.71,6.71,0,0,1-.6.418" transform="translate(-267.84 -179.742)" fill="#f9b275"/>
        <path id="Path_178" data-name="Path 178" d="M145.2,192.377a5.63,5.63,0,0,0-1.872,4.578,1.6,1.6,0,0,1-1-.992.709.709,0,0,1,.025-.393,5.931,5.931,0,0,1,2.123-2.99,1.409,1.409,0,0,1,.4-.182,1.431,1.431,0,0,1,.323-.02" transform="translate(-131.382 -179.696)" fill="#f9b275"/>
        <path id="Path_179" data-name="Path 179" d="M194.61,254.229a.777.777,0,0,1,.783.79.787.787,0,1,1-1.574-.008.778.778,0,0,1,.791-.782" transform="translate(-178.931 -236.797)" fill="#fff"/>
        <path id="Path_180" data-name="Path 180" d="M256.505,254.228a.788.788,0,0,1,.787.79.8.8,0,0,1-.795.785.78.78,0,0,1-.781-.793.771.771,0,0,1,.788-.782" transform="translate(-236.075 -236.796)" fill="#fff"/>
        <path id="Path_181" data-name="Path 181" d="M318.72,397.034c.343.082.671.135.979.242.236.082.255.2.129.42a2.984,2.984,0,0,1-.816.9.442.442,0,0,1-.579,0,2.909,2.909,0,0,1-.839-.957c-.091-.172-.068-.291.119-.352.329-.108.671-.174,1.007-.257" transform="translate(-293.151 -368.632)" fill="#fff"/>
        <path id="Path_182" data-name="Path 182" d="M297.638,369.2a.787.787,0,1,1-.018-1.574.787.787,0,1,1,.018,1.574" transform="translate(-274.035 -341.486)" fill="#fff"/>
        <path id="Path_183" data-name="Path 183" d="M349.282,369.2a.783.783,0,0,1-.795-.781.775.775,0,0,1,.778-.793.792.792,0,0,1,.8.8.8.8,0,0,1-.785.778" transform="translate(-321.719 -341.487)" fill="#fff"/>
      </g>
    </g>
    <line id="Line_59" data-name="Line 59" y1="15" x2="18" transform="translate(1808.5 -20162.5)" fill="none" stroke="#fff" stroke-linecap="round" stroke-width="3"/>
    <line id="Line_60" data-name="Line 60" x2="18" y2="15" transform="translate(1826.5 -20162.5)" fill="none" stroke="#fff" stroke-linecap="round" stroke-width="3"/>
  </g>
</svg>
