<svg xmlns="http://www.w3.org/2000/svg" xmlns:xlink="http://www.w3.org/1999/xlink" width="37" height="39" viewBox="0 0 37 39">
  <defs>
    <clipPath id="clip-path">
      <rect id="Rectangle_121" data-name="Rectangle 121" width="37" height="39" transform="translate(0 0)" fill="none"/>
    </clipPath>
  </defs>
  <g id="Group_66" data-name="Group 66" transform="translate(-210 -2.375)">
    <g id="Group_65" data-name="Group 65" transform="translate(210 2.375)" clip-path="url(#clip-path)">
      <path id="Path_155" data-name="Path 155" d="M162.038,70.906a.779.779,0,0,0-.221-.073c-.456-.007-.912,0-1.368-.006-.122,0-.206.032-.242.154a.931.931,0,0,0-1.075-1.071c-.469.023-.939.005-1.409,0-.072,0-.143-.011-.227-.017,0-.29,0-.558,0-.827a.9.9,0,0,1,.893-.977.918.918,0,0,0,.918-.766c.131-.464.251-.931.395-1.391.646-2.06,1.309-4.115,1.947-6.178a39.01,39.01,0,0,0,1.654-6.812,13.025,13.025,0,0,0-.019-3.686,8.933,8.933,0,0,0-2.515-4.936A13.678,13.678,0,0,0,158,42.184a3.408,3.408,0,0,1-1.731-2.546,5.319,5.319,0,0,1,.512-3.1c.1-.211.24-.4.366-.613.084.048.138.078.19.11q1.72,1.057,3.438,2.117a1.435,1.435,0,0,0,.782.224c.758,0,1.516-.025,2.273.008a5.981,5.981,0,0,1,1.5.2,5.037,5.037,0,0,1,3.7,4.191q.763,4.248,1.493,8.5a4.7,4.7,0,0,1,.112,1.242,1.722,1.722,0,0,1-1.28,1.515,1.758,1.758,0,0,1-1.907-.493,1.925,1.925,0,0,1-.5-1.43q0-4.18,0-8.359c0-.094,0-.188-.006-.282a.9.9,0,0,0-1.267-.769.912.912,0,0,0-.543.926q0,4.058,0,8.115c0,.244,0,.489.007.732a3.659,3.659,0,0,0,2.715,3.377,3.951,3.951,0,0,0,1.637.064c.245.338.488.677.735,1.014.092.126.185.252.288.369a.84.84,0,0,0,.176.12.876.876,0,0,0-.407.9,1.165,1.165,0,0,0,.221.485c.9,1.191,1.8,2.372,2.7,3.56a5.975,5.975,0,0,1-.071,7.4.361.361,0,0,1-.314.155q-4.367-.006-8.735,0c-.025,0-.05,0-.075,0-.11.01-.158-.033-.155-.15a6.994,6.994,0,0,1,.011-.75,1.47,1.47,0,0,1,.2-.571.884.884,0,0,1,.825-.352c1.3,0,2.592,0,3.888,0a.951.951,0,0,0,.708-.245.888.888,0,0,0,.225-.968.839.839,0,0,0-.787-.6,1.807,1.807,0,0,1-.991-.3,1.6,1.6,0,0,1-.6-.841.881.881,0,0,0-.78-.711.916.916,0,0,0-.973,1.216c.067.212.152.419.239.656-.188,0-.355-.006-.522,0a7.116,7.116,0,0,0-1.139.074,2.671,2.671,0,0,0-2.109,2.57c-.016.651-.005,1.3-.006,1.953m2.871-30.376a.9.9,0,0,0-.9-.913A.91.91,0,0,0,164,41.436a.9.9,0,0,0,.906-.906" transform="translate(-144.328 -33.716)" fill="rgba(255,255,255,0.15)"/>
      <path id="Path_156" data-name="Path 156" d="M147.024,30.752a3.952,3.952,0,0,1-1.637-.064,3.659,3.659,0,0,1-2.715-3.377c-.012-.244-.007-.488-.007-.732q0-4.057,0-8.115a.912.912,0,0,1,.543-.926.9.9,0,0,1,1.267.769c.006.094.006.188.006.282q0,4.18,0,8.359a1.925,1.925,0,0,0,.5,1.43,1.758,1.758,0,0,0,1.907.493,1.722,1.722,0,0,0,1.28-1.515,4.7,4.7,0,0,0-.113-1.242q-.736-4.253-1.493-8.5a5.037,5.037,0,0,0-3.7-4.191,5.981,5.981,0,0,0-1.5-.2c-.756-.032-1.515-.01-2.273-.008a1.435,1.435,0,0,1-.782-.224q-1.716-1.063-3.438-2.117c-.052-.032-.107-.062-.19-.11-.126.209-.265.4-.366.613a5.32,5.32,0,0,0-.512,3.1,3.408,3.408,0,0,0,1.731,2.546,13.677,13.677,0,0,1,2.772,2.141,8.934,8.934,0,0,1,2.515,4.936,13.025,13.025,0,0,1,.019,3.686A39.017,39.017,0,0,1,139.19,34.6c-.638,2.063-1.3,4.118-1.947,6.178-.144.46-.263.927-.395,1.391a.918.918,0,0,1-.918.766.9.9,0,0,0-.893.977c0,.269,0,.537,0,.827.084.007.155.017.227.017.47,0,.94.019,1.409,0a.931.931,0,0,1,1.075,1.071.946.946,0,0,1-1.026.75h-2.48a.91.91,0,0,1-1.02-1c0-.62-.009-1.24.008-1.86a2.705,2.705,0,0,1,1.827-2.449.266.266,0,0,0,.206-.186c.938-3.031,1.892-6.056,2.816-9.091a25.583,25.583,0,0,0,.966-4.431,9.978,9.978,0,0,0-.275-4.22,7.506,7.506,0,0,0-2.216-3.359,14.294,14.294,0,0,0-2.125-1.541,5.042,5.042,0,0,1-2.458-3.948,6.866,6.866,0,0,1,1-4.406,3.6,3.6,0,0,1,1.115-1.2.874.874,0,0,1,1-.008q2.005,1.239,4.022,2.458a.77.77,0,0,0,.366.1c.895.02,1.8-.033,2.684.049a6.853,6.853,0,0,1,6.137,5.461c.269,1.265.46,2.547.682,3.822.323,1.854.647,3.709.96,5.565a3.721,3.721,0,0,1-2.914,4.423" transform="translate(-121.868 -8.555)" fill="#fff"/>
      <path id="Path_157" data-name="Path 157" d="M233.627,333.665c0-.651-.009-1.3.006-1.953a2.671,2.671,0,0,1,2.109-2.57,7.115,7.115,0,0,1,1.139-.074c.166-.008.333,0,.522,0-.087-.237-.172-.444-.239-.656a.916.916,0,0,1,.973-1.216.881.881,0,0,1,.78.711,1.6,1.6,0,0,0,.6.841,1.807,1.807,0,0,0,.991.3.84.84,0,0,1,.787.6.888.888,0,0,1-.225.968.952.952,0,0,1-.708.245c-1.3,0-2.592,0-3.889,0a.884.884,0,0,0-.825.353,1.467,1.467,0,0,0-.2.571,6.974,6.974,0,0,0-.011.75c0,.117.044.16.155.15.025,0,.05,0,.075,0q4.368,0,8.735,0a.361.361,0,0,0,.314-.155,5.975,5.975,0,0,0,.071-7.4c-.9-1.188-1.807-2.37-2.7-3.56a1.165,1.165,0,0,1-.221-.485.876.876,0,0,1,.407-.9.945.945,0,0,1,1.238.272c1,1.319,2.006,2.627,2.982,3.961a7.2,7.2,0,0,1,1.313,3.57,7.662,7.662,0,0,1-.712,4.145c-.082.175-.18.342-.291.552.127,0,.229.007.33,0a6.62,6.62,0,0,0,1.188-.119A2.211,2.211,0,0,0,249.9,330.9a2.318,2.318,0,0,0-.4-2.111.941.941,0,0,1-.134-1.114.89.89,0,0,1,1.466-.116,4.222,4.222,0,0,1-2.516,6.887,5.777,5.777,0,0,1-1.028.071q-6.265.007-12.53,0a2.451,2.451,0,0,1-.281-.01.893.893,0,0,1-.852-.845" transform="translate(-215.917 -296.474)" fill="#fff"/>
      <path id="Path_158" data-name="Path 158" d="M33.992,271.6a2.97,2.97,0,0,1-.932,2.193c-1.018,1.027-2.042,2.05-3.081,3.057a2.153,2.153,0,0,1-3.225.006c-1.083-1.029-2.164-2.061-3.213-3.124a3,3,0,0,1,4.013-4.455c.6.526.849.514,1.463.013a3.053,3.053,0,0,1,3.318-.444,2.983,2.983,0,0,1,1.657,2.755" transform="translate(-20.737 -253.935)" fill="#fff"/>
      <path id="Path_159" data-name="Path 159" d="M249.55,85.98a.9.9,0,0,1-.906.906.91.91,0,0,1,.007-1.819.9.9,0,0,1,.9.913" transform="translate(-228.968 -79.166)" fill="#fff"/>
    </g>
  </g>
</svg>
