<svg xmlns="http://www.w3.org/2000/svg" width="43" height="43" viewBox="0 0 43 43">
  <g id="Group_76" data-name="Group 76" transform="translate(-1783 20028)">
    <g id="Group_75" data-name="Group 75">
      <circle id="Ellipse_30" data-name="Ellipse 30" cx="21.5" cy="21.5" r="21.5" transform="translate(1783 -20028)" fill="#fff"/>
      <path id="icons8-youtube" d="M13.294,2a60.1,60.1,0,0,0-8.678.659A3.752,3.752,0,0,0,1.494,5.711,34.137,34.137,0,0,0,1,11.659a34.137,34.137,0,0,0,.494,5.948A3.76,3.76,0,0,0,4.615,20.66a60.442,60.442,0,0,0,8.678.659,60.331,60.331,0,0,0,8.671-.659h.007a3.752,3.752,0,0,0,3.121-3.053,34.267,34.267,0,0,0,.494-5.948,33.354,33.354,0,0,0-.5-5.948,3.737,3.737,0,0,0-3.115-3.053A60.1,60.1,0,0,0,13.294,2Zm0,1.756a58.2,58.2,0,0,1,8.418.638A1.988,1.988,0,0,1,23.358,6.02a32.057,32.057,0,0,1,.473,5.639,32.709,32.709,0,0,1-.467,5.632,1.988,1.988,0,0,1-1.653,1.633,59.654,59.654,0,0,1-8.418.638,59.565,59.565,0,0,1-8.418-.638,2,2,0,0,1-1.653-1.633,32.776,32.776,0,0,1-.467-5.632A32.8,32.8,0,0,1,3.223,6.02,1.973,1.973,0,0,1,4.869,4.4h.007A58.029,58.029,0,0,1,13.294,3.756ZM9.781,7.269V16.05l8.781-4.391Z" transform="translate(1791.206 -20018.48)"/>
    </g>
  </g>
</svg>
