<svg xmlns="http://www.w3.org/2000/svg" width="43" height="43" viewBox="0 0 43 43">
  <g id="Group_74" data-name="Group 74" transform="translate(-1729 20028)">
    <circle id="Ellipse_29" data-name="Ellipse 29" cx="21.5" cy="21.5" r="21.5" transform="translate(1729 -20028)" fill="#fff"/>
    <path id="icons8-facebook" d="M16.987,3A13.979,13.979,0,0,0,14.9,30.8l.73.111V19.89h-3.3V17.653h3.3V14.681a5.266,5.266,0,0,1,1.166-3.791,4.338,4.338,0,0,1,3.3-1.137,13.836,13.836,0,0,1,2.1.127v1.832H20.635a2.282,2.282,0,0,0-1.983,1.149,4.473,4.473,0,0,0-.493,2.238v2.554h3.893l-.346,2.238H18.159V30.93l.721-.1A13.98,13.98,0,0,0,16.987,3Zm0,1.272a12.683,12.683,0,0,1,2.444,25.134V21.161H22.8l.739-4.781h-4.1V15.1a3.446,3.446,0,0,1,.324-1.606.855.855,0,0,1,.88-.509h2.827V8.728l-.551-.075a19.39,19.39,0,0,0-2.823-.173,5.64,5.64,0,0,0-4.212,1.527,6.521,6.521,0,0,0-1.521,4.673v1.7h-3.3v4.781h3.3v8.2A12.682,12.682,0,0,1,16.987,4.272Z" transform="translate(1734.013 -20023)"/>
  </g>
</svg>
