<svg xmlns="http://www.w3.org/2000/svg" width="43" height="43" viewBox="0 0 43 43">
  <g id="Group_73" data-name="Group 73" transform="translate(-1677 20028)">
    <circle id="Ellipse_28" data-name="Ellipse 28" cx="21.5" cy="21.5" r="21.5" transform="translate(1677 -20028)" fill="#fff"/>
    <path id="icons8-instagram" d="M7.547,0A7.562,7.562,0,0,0,0,7.547V18.453A7.562,7.562,0,0,0,7.547,26H18.453A7.562,7.562,0,0,0,26,18.453V7.547A7.562,7.562,0,0,0,18.453,0Zm0,2H18.453A5.531,5.531,0,0,1,24,7.547V18.453A5.531,5.531,0,0,1,18.453,24H7.547A5.531,5.531,0,0,1,2,18.453V7.547A5.531,5.531,0,0,1,7.547,2ZM20.5,4A1.5,1.5,0,1,0,22,5.5,1.5,1.5,0,0,0,20.5,4ZM13,6a7,7,0,1,0,7,7A7.014,7.014,0,0,0,13,6Zm0,2a5,5,0,1,1-5,5A4.985,4.985,0,0,1,13,8Z" transform="translate(1686 -20019)"/>
  </g>
</svg>
