<svg id="favorite-24px" xmlns="http://www.w3.org/2000/svg" width="46.416" height="46.416" viewBox="0 0 46.416 46.416">
  <path id="Path_32" data-name="Path 32" d="M0,0H46.416V46.416H0Z" fill="none"/>
  <path id="Path_33" data-name="Path 33" d="M23.954,36.13a3.86,3.86,0,0,1-5.2-.019l-.213-.193C8.386,26.731,1.752,20.716,2,13.212a10.558,10.558,0,0,1,4.526-8.3A11.208,11.208,0,0,1,21.343,7.043,11.187,11.187,0,0,1,36.158,4.915a10.558,10.558,0,0,1,4.526,8.3c.271,7.5-6.382,13.519-16.536,22.744l-.193.174Z" transform="translate(1.865 2.801)" fill="#6a6a6a"/>
</svg>
