<svg id="people_outline-white-18dp" xmlns="http://www.w3.org/2000/svg" width="51.977" height="51.977" viewBox="0 0 51.977 51.977">
  <path id="Path_28" data-name="Path 28" d="M0,0H51.977V51.977H0Z" fill="none"/>
  <path id="Path_29" data-name="Path 29" d="M17.188,20.261a7.631,7.631,0,1,0-7.594-7.63A7.621,7.621,0,0,0,17.188,20.261Zm0-10.9a3.27,3.27,0,1,1-3.255,3.27A3.258,3.258,0,0,1,17.188,9.36Zm0,14.716C12.111,24.076,2,26.627,2,31.707v1.635a2.181,2.181,0,0,0,2.17,2.18H30.207a2.181,2.181,0,0,0,2.17-2.18V31.707C32.376,26.627,22.265,24.076,17.188,24.076ZM7.077,31.162a20.845,20.845,0,0,1,10.111-2.725A20.845,20.845,0,0,1,27.3,31.162Zm25.386-6.955c2.517,1.831,4.253,4.273,4.253,7.5v3.815h6.509a2.181,2.181,0,0,0,2.17-2.18V31.707C45.395,27.3,37.8,24.8,32.463,24.207Zm-2.257-3.946A7.631,7.631,0,0,0,30.207,5a7.447,7.447,0,0,0-3.255.763,11.953,11.953,0,0,1,0,13.735A7.447,7.447,0,0,0,30.207,20.261Z" transform="translate(2.291 5.728)" fill="#6a6a6a"/>
</svg>
