<svg xmlns="http://www.w3.org/2000/svg" width="602.332" height="612.018" viewBox="0 0 602.332 612.018">
  <g id="charity" transform="translate(-1.001 -0.504)">
    <g id="Group_78" data-name="Group 78" transform="translate(20.432 293.207)">
      <path id="Path_184" data-name="Path 184" d="M12.716,87.631A9.706,9.706,0,0,1,3,77.916V40.346a9.715,9.715,0,1,1,19.431,0V77.916A9.706,9.706,0,0,1,12.716,87.631Z" transform="translate(-3.001 -30.631)" fill="#fff"/>
    </g>
    <g id="Group_79" data-name="Group 79" transform="translate(156.447 287.057)">
      <path id="Path_185" data-name="Path 185" d="M26.716,93.148A9.706,9.706,0,0,1,17,83.432V39.713a9.715,9.715,0,1,1,19.431,0V83.432A9.706,9.706,0,0,1,26.716,93.148Z" transform="translate(-17.001 -29.998)" fill="#fff"/>
    </g>
    <g id="Group_80" data-name="Group 80" transform="translate(10.716 214.192)">
      <path id="Path_186" data-name="Path 186" d="M157.447,114.794a9.706,9.706,0,0,1-9.715-9.715,63.15,63.15,0,1,0-126.3,0,9.715,9.715,0,0,1-19.431,0,82.58,82.58,0,1,1,165.161,0A9.706,9.706,0,0,1,157.447,114.794Z" transform="translate(-2.001 -22.498)" fill="#fff"/>
    </g>
    <g id="Group_81" data-name="Group 81" transform="translate(10.72 276.525)">
      <path id="Path_187" data-name="Path 187" d="M157.453,72.2a9.7,9.7,0,0,1-7.724-3.808c-18.77-24.512-23.861-22.472-42.884-14.942C88.59,60.674,61.038,71.614,10.2,63.57a9.714,9.714,0,1,1,3.041-19.188C58.832,51.591,82.45,42.215,99.7,35.376c23.4-9.268,39.1-13.232,65.462,21.189a9.711,9.711,0,0,1-1.807,13.621,9.6,9.6,0,0,1-5.9,2.011Z" transform="translate(-2.001 -28.914)" fill="#fff"/>
    </g>
    <g id="Group_82" data-name="Group 82" transform="translate(117.591 237.547)">
      <path id="Path_188" data-name="Path 188" d="M22.7,83.9a9.6,9.6,0,0,1-4.265-1A9.714,9.714,0,0,1,14,69.9L33.427,30.343A9.713,9.713,0,0,1,50.866,38.9L31.436,78.463A9.718,9.718,0,0,1,22.7,83.9Z" transform="translate(-13.002 -24.902)" fill="#fff"/>
    </g>
    <g id="Group_83" data-name="Group 83" transform="translate(1.001 418.176)">
      <path id="Path_189" data-name="Path 189" d="M10.716,92.071A9.706,9.706,0,0,1,1,82.355,38.9,38.9,0,0,1,39.862,43.494a9.715,9.715,0,1,1,0,19.431A19.45,19.45,0,0,0,20.432,82.355,9.706,9.706,0,0,1,10.716,92.071Z" transform="translate(-1.001 -43.494)" fill="#fff"/>
    </g>
    <g id="Group_84" data-name="Group 84" transform="translate(30.147 418.234)">
      <path id="Path_190" data-name="Path 190" d="M42.862,62.931H13.716a9.715,9.715,0,1,1,0-19.431H42.862a9.715,9.715,0,1,1,0,19.431Z" transform="translate(-4.001 -43.5)" fill="#fff"/>
    </g>
    <g id="Group_85" data-name="Group 85" transform="translate(1.001 447.322)">
      <path id="Path_191" data-name="Path 191" d="M10.716,104.825A9.706,9.706,0,0,1,1,95.11v-38.9a9.715,9.715,0,1,1,19.431,0v38.9A9.706,9.706,0,0,1,10.716,104.825Z" transform="translate(-1.001 -46.494)" fill="#fff"/>
    </g>
    <g id="Group_86" data-name="Group 86" transform="translate(146.731 418.176)">
      <path id="Path_192" data-name="Path 192" d="M54.862,92.071a9.706,9.706,0,0,1-9.715-9.715A19.45,19.45,0,0,0,25.716,62.925a9.715,9.715,0,1,1,0-19.431A38.9,38.9,0,0,1,64.578,82.355,9.706,9.706,0,0,1,54.862,92.071Z" transform="translate(-16.001 -43.494)" fill="#fff"/>
    </g>
    <g id="Group_87" data-name="Group 87" transform="translate(117.585 418.234)">
      <path id="Path_193" data-name="Path 193" d="M51.862,62.931H22.716a9.715,9.715,0,1,1,0-19.431H51.862a9.715,9.715,0,1,1,0,19.431Z" transform="translate(-13.001 -43.5)" fill="#fff"/>
    </g>
    <g id="Group_88" data-name="Group 88" transform="translate(175.877 447.322)">
      <path id="Path_194" data-name="Path 194" d="M28.716,104.825A9.706,9.706,0,0,1,19,95.11v-38.9a9.715,9.715,0,1,1,19.431,0v38.9A9.706,9.706,0,0,1,28.716,104.825Z" transform="translate(-19.001 -46.494)" fill="#fff"/>
    </g>
    <g id="Group_89" data-name="Group 89" transform="translate(59.293 392.158)">
      <path id="Path_195" data-name="Path 195" d="M16.716,86.323A9.706,9.706,0,0,1,7,76.607V50.531a9.715,9.715,0,0,1,19.431,0V76.607A9.706,9.706,0,0,1,16.716,86.323Z" transform="translate(-7.001 -40.816)" fill="#fff"/>
    </g>
    <g id="Group_90" data-name="Group 90" transform="translate(117.585 392.158)">
      <path id="Path_196" data-name="Path 196" d="M22.716,86.264A9.706,9.706,0,0,1,13,76.549V50.531a9.715,9.715,0,1,1,19.431,0V76.549A9.706,9.706,0,0,1,22.716,86.264Z" transform="translate(-13.001 -40.816)" fill="#fff"/>
    </g>
    <g id="Group_91" data-name="Group 91" transform="translate(20.432 330.738)">
      <path id="Path_197" data-name="Path 197" d="M80.724,121.893A77.793,77.793,0,0,1,3,44.209a9.715,9.715,0,0,1,19.431,0,58.292,58.292,0,0,0,116.584,0,9.715,9.715,0,0,1,19.431,0A77.793,77.793,0,0,1,80.724,121.893Z" transform="translate(-3.001 -34.494)" fill="#fff"/>
    </g>
    <g id="Group_92" data-name="Group 92" transform="translate(428.457 253.015)">
      <path id="Path_198" data-name="Path 198" d="M54.714,123.686A9.706,9.706,0,0,1,45,113.971V36.209a9.715,9.715,0,0,1,19.431,0v77.762A9.706,9.706,0,0,1,54.714,123.686Z" transform="translate(-44.999 -26.494)" fill="#fff"/>
    </g>
    <g id="Group_93" data-name="Group 93" transform="translate(564.472 327.93)">
      <path id="Path_199" data-name="Path 199" d="M68.714,56.482A9.706,9.706,0,0,1,59,46.767V43.92a9.715,9.715,0,1,1,19.431,0v2.847A9.706,9.706,0,0,1,68.714,56.482Z" transform="translate(-58.999 -34.205)" fill="#fff"/>
    </g>
    <g id="Group_94" data-name="Group 94" transform="translate(409.026 418.176)">
      <path id="Path_200" data-name="Path 200" d="M52.714,92.071A9.706,9.706,0,0,1,43,82.355,38.9,38.9,0,0,1,81.86,43.494a9.715,9.715,0,0,1,0,19.431A19.45,19.45,0,0,0,62.43,82.355,9.706,9.706,0,0,1,52.714,92.071Z" transform="translate(-42.999 -43.494)" fill="#fff"/>
    </g>
    <g id="Group_95" data-name="Group 95" transform="translate(438.172 418.234)">
      <path id="Path_201" data-name="Path 201" d="M84.86,62.931H55.714a9.715,9.715,0,0,1,0-19.431H84.86a9.715,9.715,0,0,1,0,19.431Z" transform="translate(-45.999 -43.5)" fill="#fff"/>
    </g>
    <g id="Group_96" data-name="Group 96" transform="translate(409.026 447.322)">
      <path id="Path_202" data-name="Path 202" d="M52.714,104.825A9.706,9.706,0,0,1,43,95.11v-38.9a9.715,9.715,0,1,1,19.431,0v38.9A9.706,9.706,0,0,1,52.714,104.825Z" transform="translate(-42.999 -46.494)" fill="#fff"/>
    </g>
    <g id="Group_97" data-name="Group 97" transform="translate(554.757 418.176)">
      <path id="Path_203" data-name="Path 203" d="M96.86,92.071a9.706,9.706,0,0,1-9.715-9.715A19.45,19.45,0,0,0,67.714,62.925a9.715,9.715,0,0,1,0-19.431,38.9,38.9,0,0,1,38.861,38.861A9.706,9.706,0,0,1,96.86,92.071Z" transform="translate(-57.999 -43.494)" fill="#fff"/>
    </g>
    <g id="Group_98" data-name="Group 98" transform="translate(525.61 418.234)">
      <path id="Path_204" data-name="Path 204" d="M93.86,62.931H64.714a9.715,9.715,0,1,1,0-19.431H93.86a9.715,9.715,0,0,1,0,19.431Z" transform="translate(-54.999 -43.5)" fill="#fff"/>
    </g>
    <g id="Group_99" data-name="Group 99" transform="translate(583.903 447.322)">
      <path id="Path_205" data-name="Path 205" d="M70.714,104.825A9.707,9.707,0,0,1,61,95.11v-38.9a9.715,9.715,0,1,1,19.431,0v38.9A9.706,9.706,0,0,1,70.714,104.825Z" transform="translate(-60.999 -46.494)" fill="#fff"/>
    </g>
    <g id="Group_100" data-name="Group 100" transform="translate(467.318 392.158)">
      <path id="Path_206" data-name="Path 206" d="M58.714,86.323A9.706,9.706,0,0,1,49,76.607V50.531a9.715,9.715,0,0,1,19.431,0V76.607A9.706,9.706,0,0,1,58.714,86.323Z" transform="translate(-48.999 -40.816)" fill="#fff"/>
    </g>
    <g id="Group_101" data-name="Group 101" transform="translate(525.61 392.158)">
      <path id="Path_207" data-name="Path 207" d="M64.714,86.264A9.706,9.706,0,0,1,55,76.549V50.531a9.715,9.715,0,1,1,19.431,0V76.549A9.706,9.706,0,0,1,64.714,86.264Z" transform="translate(-54.999 -40.816)" fill="#fff"/>
    </g>
    <g id="Group_102" data-name="Group 102" transform="translate(428.457 330.738)">
      <path id="Path_208" data-name="Path 208" d="M122.722,121.893A77.793,77.793,0,0,1,45,44.209a9.715,9.715,0,0,1,19.431,0,58.292,58.292,0,0,0,116.584,0,9.715,9.715,0,0,1,19.431,0A77.793,77.793,0,0,1,122.722,121.893Z" transform="translate(-44.999 -34.494)" fill="#fff"/>
    </g>
    <g id="Group_103" data-name="Group 103" transform="translate(175.868 505.653)">
      <path id="Path_209" data-name="Path 209" d="M28.715,120.505A9.706,9.706,0,0,1,19,110.79,58.351,58.351,0,0,1,77.292,52.5a9.715,9.715,0,1,1,0,19.431A38.9,38.9,0,0,0,38.431,110.79,9.706,9.706,0,0,1,28.715,120.505Z" transform="translate(-19 -52.498)" fill="#fff"/>
    </g>
    <g id="Group_104" data-name="Group 104" transform="translate(224.444 505.653)">
      <path id="Path_210" data-name="Path 210" d="M62.861,71.929H33.715a9.715,9.715,0,1,1,0-19.431H62.861a9.715,9.715,0,0,1,0,19.431Z" transform="translate(-24 -52.498)" fill="#fff"/>
    </g>
    <g id="Group_105" data-name="Group 105" transform="translate(175.868 554.229)">
      <path id="Path_211" data-name="Path 211" d="M28.715,115.79A9.706,9.706,0,0,1,19,106.075V67.213a9.715,9.715,0,0,1,19.431,0v38.861A9.706,9.706,0,0,1,28.715,115.79Z" transform="translate(-19 -57.498)" fill="#fff"/>
    </g>
    <g id="Group_106" data-name="Group 106" transform="translate(360.459 505.653)">
      <path id="Path_212" data-name="Path 212" d="M96.292,120.505a9.706,9.706,0,0,1-9.715-9.715A38.9,38.9,0,0,0,47.715,71.929a9.715,9.715,0,1,1,0-19.431,58.351,58.351,0,0,1,58.292,58.292A9.706,9.706,0,0,1,96.292,120.505Z" transform="translate(-38 -52.498)" fill="#fff"/>
    </g>
    <g id="Group_107" data-name="Group 107" transform="translate(331.313 505.653)">
      <path id="Path_213" data-name="Path 213" d="M73.861,71.929H44.715a9.715,9.715,0,1,1,0-19.431H73.861a9.715,9.715,0,1,1,0,19.431Z" transform="translate(-35 -52.498)" fill="#fff"/>
    </g>
    <g id="Group_108" data-name="Group 108" transform="translate(409.036 554.229)">
      <path id="Path_214" data-name="Path 214" d="M52.715,115.79A9.706,9.706,0,0,1,43,106.075V67.213a9.715,9.715,0,0,1,19.431,0v38.861A9.706,9.706,0,0,1,52.715,115.79Z" transform="translate(-43 -57.498)" fill="#fff"/>
    </g>
    <g id="Group_109" data-name="Group 109" transform="translate(253.59 467.413)">
      <path id="Path_215" data-name="Path 215" d="M36.715,106.232A9.706,9.706,0,0,1,27,96.517V58.277a9.715,9.715,0,0,1,19.431,0v38.24A9.706,9.706,0,0,1,36.715,106.232Z" transform="translate(-27 -48.562)" fill="#fff"/>
    </g>
    <g id="Group_110" data-name="Group 110" transform="translate(331.313 467.413)">
      <path id="Path_216" data-name="Path 216" d="M44.715,106.232A9.706,9.706,0,0,1,35,96.517V58.277a9.715,9.715,0,0,1,19.431,0v38.24A9.706,9.706,0,0,1,44.715,106.232Z" transform="translate(-35 -48.562)" fill="#fff"/>
    </g>
    <g id="Group_111" data-name="Group 111" transform="translate(205.014 389.088)">
      <path id="Path_217" data-name="Path 217" d="M119.144,147.349A97.245,97.245,0,0,1,22,50.215a9.715,9.715,0,0,1,19.431,0,77.723,77.723,0,0,0,155.446,0,9.715,9.715,0,1,1,19.431,0A97.255,97.255,0,0,1,119.144,147.349Z" transform="translate(-22 -40.5)" fill="#fff"/>
    </g>
    <g id="Group_112" data-name="Group 112" transform="translate(205.014 330.776)">
      <path id="Path_218" data-name="Path 218" d="M31.715,112.716A9.706,9.706,0,0,1,22,103V44.213a9.715,9.715,0,1,1,19.431,0V103A9.706,9.706,0,0,1,31.715,112.716Z" transform="translate(-22 -34.498)" fill="#fff"/>
    </g>
    <g id="Group_113" data-name="Group 113" transform="translate(379.89 330.776)">
      <path id="Path_219" data-name="Path 219" d="M49.715,112.24A9.706,9.706,0,0,1,40,102.525V44.213a9.715,9.715,0,1,1,19.431,0v58.312A9.706,9.706,0,0,1,49.715,112.24Z" transform="translate(-40 -34.498)" fill="#fff"/>
    </g>
    <g id="Group_114" data-name="Group 114" transform="translate(341.029 291.915)">
      <path id="Path_220" data-name="Path 220" d="M84.577,88.79a9.706,9.706,0,0,1-9.715-9.715A29.182,29.182,0,0,0,45.715,49.929a9.715,9.715,0,1,1,0-19.431A48.632,48.632,0,0,1,94.292,79.075,9.706,9.706,0,0,1,84.577,88.79Z" transform="translate(-36 -30.498)" fill="#fff"/>
    </g>
    <g id="Group_115" data-name="Group 115" transform="translate(341.029 253.054)">
      <path id="Path_221" data-name="Path 221" d="M45.715,84.79A9.706,9.706,0,0,1,36,75.075V36.213a9.715,9.715,0,1,1,19.431,0V75.075A9.706,9.706,0,0,1,45.715,84.79Z" transform="translate(-36 -26.498)" fill="#fff"/>
    </g>
    <g id="Group_116" data-name="Group 116" transform="translate(282.736 253.19)">
      <path id="Path_222" data-name="Path 222" d="M98.007,45.943H39.715a9.715,9.715,0,0,1,0-19.431H98.007a9.715,9.715,0,0,1,0,19.431Z" transform="translate(-30 -26.512)" fill="#fff"/>
    </g>
    <g id="Group_117" data-name="Group 117" transform="translate(205.014 253.054)">
      <path id="Path_223" data-name="Path 223" d="M31.715,123.652A9.706,9.706,0,0,1,22,113.936,87.532,87.532,0,0,1,109.438,26.5a9.715,9.715,0,1,1,0,19.431,68.1,68.1,0,0,0-68.007,68.007A9.706,9.706,0,0,1,31.715,123.652Z" transform="translate(-22 -26.498)" fill="#fff"/>
    </g>
    <g id="Group_121" data-name="Group 121" transform="translate(205.012 340.486)">
      <g id="Group_118" data-name="Group 118" transform="translate(145.725 0.003)">
        <path id="Path_224" data-name="Path 224" d="M75.858,74.6a9.763,9.763,0,0,1-5.431-1.661L41.281,53.269A9.721,9.721,0,1,1,52.152,37.152L81.3,56.825A9.72,9.72,0,0,1,75.858,74.6Z" transform="translate(-36.999 -35.498)" fill="#fff"/>
      </g>
      <g id="Group_119" data-name="Group 119" transform="translate(29.15)">
        <path id="Path_225" data-name="Path 225" d="M97.863,64.649a232.359,232.359,0,0,1-66.21-10.211,9.719,9.719,0,0,1,6.121-18.449c.282.1,28.252,9.22,60.1,9.22,30.875,0,48.965-8.627,49.15-8.715a9.72,9.72,0,0,1,8.627,17.42c-.9.437-21.976,10.735-57.787,10.735Z" transform="translate(-25 -35.497)" fill="#fff"/>
      </g>
      <g id="Group_120" data-name="Group 120" transform="translate(0 0.009)">
        <path id="Path_226" data-name="Path 226" d="M31.726,74.6A9.713,9.713,0,0,1,26.286,56.83L55.432,37.157A9.721,9.721,0,1,1,66.3,53.274L37.157,72.948A9.751,9.751,0,0,1,31.726,74.6Z" transform="translate(-22 -35.498)" fill="#fff"/>
      </g>
    </g>
    <g id="Group_122" data-name="Group 122" transform="translate(457.603 204.438)">
      <path id="Path_227" data-name="Path 227" d="M184.014,118.647a9.706,9.706,0,0,1-9.715-9.715,68.1,68.1,0,0,0-68.007-68.007c-17.313,0-32.663,9.4-42.495,17.293A9.717,9.717,0,0,1,51.633,43.062c17.585-14.107,36.481-21.568,54.659-21.568a87.532,87.532,0,0,1,87.438,87.438A9.706,9.706,0,0,1,184.014,118.647Z" transform="translate(-47.999 -21.494)" fill="#fff"/>
    </g>
    <g id="Group_123" data-name="Group 123" transform="translate(506.18 301.591)">
      <path id="Path_228" data-name="Path 228" d="M140.437,128.648a9.706,9.706,0,0,1-9.715-9.715A68.1,68.1,0,0,0,62.714,50.925a9.715,9.715,0,1,1,0-19.431,87.532,87.532,0,0,1,87.438,87.438A9.706,9.706,0,0,1,140.437,128.648Z" transform="translate(-52.999 -31.494)" fill="#fff"/>
    </g>
    <g id="Group_124" data-name="Group 124" transform="translate(428.457 272.445)">
      <path id="Path_229" data-name="Path 229" d="M54.714,77.071a9.715,9.715,0,1,1,0-19.431A19.45,19.45,0,0,0,74.145,38.209a9.715,9.715,0,0,1,19.431,0A38.9,38.9,0,0,1,54.714,77.071Z" transform="translate(-44.999 -28.494)" fill="#fff"/>
    </g>
    <g id="Group_125" data-name="Group 125" transform="translate(428.457 224.005)">
      <path id="Path_230" data-name="Path 230" d="M54.714,72.085A9.706,9.706,0,0,1,45,62.369,38.9,38.9,0,0,1,83.86,23.508a9.715,9.715,0,1,1,0,19.431A19.45,19.45,0,0,0,64.43,62.369,9.706,9.706,0,0,1,54.714,72.085Z" transform="translate(-44.999 -23.508)" fill="#fff"/>
    </g>
    <g id="Group_126" data-name="Group 126" transform="translate(457.603 272.445)">
      <path id="Path_231" data-name="Path 231" d="M86.86,77.071A38.9,38.9,0,0,1,48,38.209a9.715,9.715,0,0,1,19.431,0A19.45,19.45,0,0,0,86.86,57.64a9.715,9.715,0,0,1,0,19.431Z" transform="translate(-47.999 -28.494)" fill="#fff"/>
    </g>
    <g id="Group_127" data-name="Group 127" transform="translate(457.603 223.869)">
      <path id="Path_232" data-name="Path 232" d="M57.714,91.5A9.706,9.706,0,0,1,48,81.786V33.209a9.715,9.715,0,1,1,19.431,0V81.786A9.706,9.706,0,0,1,57.714,91.5Z" transform="translate(-47.999 -23.494)" fill="#fff"/>
    </g>
    <g id="Group_128" data-name="Group 128" transform="translate(583.903 282.161)">
      <path id="Path_233" data-name="Path 233" d="M70.714,146.078A9.706,9.706,0,0,1,61,136.363V39.209a9.715,9.715,0,0,1,19.431,0v97.153A9.706,9.706,0,0,1,70.714,146.078Z" transform="translate(-60.999 -29.494)" fill="#fff"/>
    </g>
    <g id="Group_129" data-name="Group 129" transform="translate(486.749 301.591)">
      <path id="Path_234" data-name="Path 234" d="M80.145,50.925H60.714a9.715,9.715,0,0,1,0-19.431H80.145a9.715,9.715,0,0,1,0,19.431Z" transform="translate(-50.999 -31.494)" fill="#fff"/>
    </g>
    <g id="Group_130" data-name="Group 130" transform="translate(10.716 287.057)">
      <path id="Path_235" data-name="Path 235" d="M11.716,54.248A9.706,9.706,0,0,1,2,44.532V39.713a9.715,9.715,0,1,1,19.431,0v4.819A9.706,9.706,0,0,1,11.716,54.248Z" transform="translate(-2.001 -29.998)" fill="#fff"/>
    </g>
    <g id="Group_131" data-name="Group 131" transform="translate(253.592 505.646)">
      <path id="Path_236" data-name="Path 236" d="M56.135,81.592a9.679,9.679,0,0,1-4.314-1.01L32.39,70.924a9.717,9.717,0,1,1,8.656-17.4l19.431,9.657a9.713,9.713,0,0,1-4.343,18.411Z" transform="translate(-27 -52.497)" fill="#fff"/>
    </g>
    <g id="Group_132" data-name="Group 132" transform="translate(273.015 505.601)">
      <path id="Path_237" data-name="Path 237" d="M38.731,81.632a9.718,9.718,0,0,1-4.352-18.411l19.431-9.7a9.713,9.713,0,1,1,8.676,17.381L43.054,80.6A9.488,9.488,0,0,1,38.731,81.632Z" transform="translate(-28.999 -52.493)" fill="#fff"/>
    </g>
    <g id="Group_133" data-name="Group 133" transform="translate(311.884 505.636)">
      <path id="Path_238" data-name="Path 238" d="M42.723,81.6A9.719,9.719,0,0,1,38.39,63.18l19.431-9.657a9.717,9.717,0,1,1,8.656,17.4L47.047,80.58A9.632,9.632,0,0,1,42.723,81.6Z" transform="translate(-33 -52.496)" fill="#fff"/>
    </g>
    <g id="Group_134" data-name="Group 134" transform="translate(292.455 505.611)">
      <path id="Path_239" data-name="Path 239" d="M60.133,81.624A9.6,9.6,0,0,1,55.81,80.6l-19.431-9.7a9.713,9.713,0,0,1,8.676-17.381l19.431,9.7a9.711,9.711,0,0,1-4.352,18.4Z" transform="translate(-31 -52.494)" fill="#fff"/>
    </g>
    <g id="Group_135" data-name="Group 135" transform="translate(467.316 418.222)">
      <path id="Path_240" data-name="Path 240" d="M87.872,82.295a9.68,9.68,0,0,1-5.363-1.622L53.344,61.319A9.714,9.714,0,0,1,64.089,45.134L93.254,64.487a9.715,9.715,0,0,1-5.382,17.808Z" transform="translate(-48.999 -43.499)" fill="#fff"/>
    </g>
    <g id="Group_136" data-name="Group 136" transform="translate(496.443 418.222)">
      <path id="Path_241" data-name="Path 241" d="M61.724,82.295a9.715,9.715,0,0,1-5.382-17.808L85.507,45.134A9.714,9.714,0,1,1,96.252,61.319L67.087,80.672A9.657,9.657,0,0,1,61.724,82.295Z" transform="translate(-51.997 -43.499)" fill="#fff"/>
    </g>
    <g id="Group_137" data-name="Group 137" transform="translate(59.293 418.195)">
      <path id="Path_242" data-name="Path 242" d="M45.853,82.357C24.071,82.357,7,69.562,7,53.211a9.715,9.715,0,0,1,19.431,0c0,3.964,7.559,9.715,19.421,9.715s19.431-5.751,19.431-9.715a9.715,9.715,0,0,1,19.431,0c0,16.351-17.07,29.146-38.861,29.146Z" transform="translate(-7.001 -43.496)" fill="#fff"/>
    </g>
    <g id="Group_141" data-name="Group 141" transform="translate(175.868 0.503)">
      <g id="Group_138" data-name="Group 138">
        <path id="Path_243" data-name="Path 243" d="M145.309,233.147a9.689,9.689,0,0,1-6.869-2.847l-96.6-96.58a77.988,77.988,0,0,1,0-110.289,77.875,77.875,0,0,1,103.488-6.121A78.012,78.012,0,0,1,248.8,23.285c30.156,30.36,30.322,79.5.534,109.91-.175.194-.34.379-.525.563L152.2,230.32A9.787,9.787,0,0,1,145.309,233.147ZM97,19.943A58.613,58.613,0,0,0,55.578,119.982l89.731,89.712,89.022-88.983a11.039,11.039,0,0,1,1.2-1.234A58.9,58.9,0,0,0,235.021,37a58.544,58.544,0,0,0-82.8.146,10.034,10.034,0,0,1-13.8.01A58.084,58.084,0,0,0,97,19.943Z" transform="translate(-19 -0.503)" fill="#fff"/>
      </g>
      <g id="Group_139" data-name="Group 139" transform="translate(70.966 135.762)">
        <path id="Path_244" data-name="Path 244" d="M127.252,65.8a9.71,9.71,0,0,1-9.123-6.373,38.87,38.87,0,0,0-72.991-.058A9.716,9.716,0,0,1,26.9,52.658a58.309,58.309,0,0,1,109.482.087A9.723,9.723,0,0,1,127.252,65.8Z" transform="translate(-26.305 -14.477)" fill="#fff"/>
      </g>
      <g id="Group_140" data-name="Group 140" transform="translate(87.428 77.49)">
        <path id="Path_245" data-name="Path 245" d="M66.86,86.2A38.861,38.861,0,1,1,105.722,47.34,38.9,38.9,0,0,1,66.86,86.2Zm0-58.292A19.431,19.431,0,1,0,86.291,47.34,19.45,19.45,0,0,0,66.86,27.91Z" transform="translate(-27.999 -8.479)" fill="#fff"/>
      </g>
    </g>
  </g>
</svg>
